<svg id="Layer_1" data-name="Layer 1" xmlns="http://www.w3.org/2000/svg" viewBox="0 0 257 256"><defs><style>.cls-1{fill:#33879e;}.cls-2{opacity:0.8;}.cls-3{fill:#fff;}</style></defs><title>icon</title><rect class="cls-1" width="257" height="256"/><rect class="cls-2" x="0.5" y="98" width="256" height="60"/><path class="cls-3" d="M41.86,136.17h-2L50.49,118.5h1.9Z" transform="translate(0.5 0)"/><path class="cls-3" d="M57.7,128.58v-3.73l-2.82,2-1-1.73,3.3-1.61-3.3-1.63,1-1.71,2.82,2V118.5h2v3.74l2.83-2,1,1.7-3.31,1.63,3.31,1.61-1,1.74-2.83-2v3.73Z" transform="translate(0.5 0)"/><path class="cls-3" d="M78.65,119h2.17v10.95a8.11,8.11,0,0,0,.36,2.95,2.54,2.54,0,0,0,1.1,1.2,3.36,3.36,0,0,0,1.66.41,3.32,3.32,0,0,0,1.72-.45,2.63,2.63,0,0,0,1.12-1.4,11.7,11.7,0,0,0,.36-3.57V119h2v10.88a7.92,7.92,0,0,1-.69,3.65,4.87,4.87,0,0,1-1.81,2,5.41,5.41,0,0,1-2.81.67,6.22,6.22,0,0,1-2.76-.58,3.93,3.93,0,0,1-1.8-1.74,9.91,9.91,0,0,1-.61-4.19Z" transform="translate(0.5 0)"/><path class="cls-3" d="M92.32,129.75v-1.67h8.34v1.67Z" transform="translate(0.5 0)"/><path class="cls-3" d="M104.71,135.66,102.77,119h2l1.13,10.15.15,1.69h.05l.22-1.69L108.07,119h2l2,10.56.2,1.61h.05l.13-1.62L113.67,119h1.7l-2,16.67H111.3l-2.15-11.3-.23-1.7h-.05l-.2,1.7-1.93,11.3Z" transform="translate(0.5 0)"/><path class="cls-3" d="M119.12,129.58v6.08h-2.17V119h4.15a9,9,0,0,1,3.73.57,4.06,4.06,0,0,1,1.79,1.68,5,5,0,0,1,.62,2.47,5.67,5.67,0,0,1-.84,3,5.57,5.57,0,0,1-2.34,2.13,9.21,9.21,0,0,1-4.07.75Zm0-1.67h.93a6.58,6.58,0,0,0,3-.52,3.6,3.6,0,0,0,1.5-1.5,4.41,4.41,0,0,0,.53-2.12,2.9,2.9,0,0,0-.94-2.28q-.94-.84-3.71-.84h-1.3Z" transform="translate(0.5 0)"/><path class="cls-3" d="M139,133.83v1.84h-9V119h2.17v14.83Z" transform="translate(0.5 0)"/><path class="cls-3" d="M142.58,135.66h-1.75V119H143l3.85,11,3.86-11h2.12v16.67h-2V125l.05-1.46h-.06l-.47,1.46-2.58,7.29h-2.17L143,125l-.42-1.46h-.06l.05,1.46Z" transform="translate(0.5 0)"/><path class="cls-3" d="M155.25,129.75v-1.67h8.34v1.67Z" transform="translate(0.5 0)"/><path class="cls-3" d="M177.09,135.47a9.7,9.7,0,0,1-3.35.7,6.56,6.56,0,0,1-3.6-1,6.84,6.84,0,0,1-2.56-3.12,12.44,12.44,0,0,1,0-9.33,6.88,6.88,0,0,1,2.55-3.13,6.53,6.53,0,0,1,3.62-1.06,9.77,9.77,0,0,1,3.35.69v2a6.8,6.8,0,0,0-3.44-1,3.62,3.62,0,0,0-2.36.88,6.1,6.1,0,0,0-1.72,2.59,10.77,10.77,0,0,0,0,7.46,6.11,6.11,0,0,0,1.73,2.57,3.61,3.61,0,0,0,2.33.85,6.87,6.87,0,0,0,3.44-1Z" transform="translate(0.5 0)"/><path class="cls-3" d="M196.59,128.58v-3.73l-2.82,2-1-1.73,3.3-1.61-3.3-1.63,1-1.71,2.82,2V118.5h2v3.74l2.83-2,1,1.7-3.31,1.63,3.31,1.61-1,1.74-2.83-2v3.73Z" transform="translate(0.5 0)"/><path class="cls-3" d="M205.92,136.17h-2l10.59-17.67h1.9Z" transform="translate(0.5 0)"/></svg>